<svg width="49" height="24" viewBox="0 0 49 24" fill="none" xmlns="http://www.w3.org/2000/svg">
<path d="M6.84766 10.1387H16.6914V0.939453C17.5312 0.96875 18.3223 1.01758 19.0645 1.08594C19.8066 1.1543 20.4658 1.22754 21.042 1.30566C21.7061 1.39355 22.3262 1.48633 22.9023 1.58398V5.33398C22.5215 5.2168 22.1016 5.10938 21.6426 5.01172C21.1836 4.9043 20.7051 4.80664 20.207 4.71875V19.2207C21.2812 19.0449 22.1797 18.8398 22.9023 18.6055V22.3262C22.1992 22.4434 21.5547 22.541 20.9688 22.6191C20.3828 22.6973 19.8408 22.7607 19.3428 22.8096C18.8447 22.8584 18.376 22.8975 17.9365 22.9268C17.5068 22.9561 17.0918 22.9805 16.6914 23V13.6836H6.84766V23C6.44727 22.9805 6.02734 22.9561 5.58789 22.9268C5.1582 22.8975 4.69434 22.8584 4.19629 22.8096C3.69824 22.7607 3.15625 22.6973 2.57031 22.6191C1.98438 22.541 1.33984 22.4434 0.636719 22.3262V18.6055C1.01758 18.7227 1.42773 18.835 1.86719 18.9424C2.31641 19.04 2.80469 19.1328 3.33203 19.2207V4.71875C2.31641 4.89453 1.41797 5.09961 0.636719 5.33398V1.58398C1.19336 1.48633 1.80859 1.39355 2.48242 1.30566C3.04883 1.22754 3.70801 1.1543 4.45996 1.08594C5.21191 1.01758 6.00781 0.96875 6.84766 0.939453V10.1387ZM38.0195 0.675781C39.4941 0.675781 40.8857 0.807617 42.1943 1.07129C43.5029 1.33496 44.6455 1.70117 45.6221 2.16992C46.6084 2.63867 47.3896 3.2002 47.9658 3.85449C48.542 4.50879 48.8301 5.22656 48.8301 6.00781V8.38086H45.0215V7.12109C45.0215 6.70117 44.8604 6.30078 44.5381 5.91992C44.2158 5.53906 43.752 5.20215 43.1465 4.90918C42.5508 4.61621 41.8184 4.38672 40.9492 4.2207C40.0898 4.04492 39.1133 3.95703 38.0195 3.95703C36.9648 3.95703 36.0078 4.04004 35.1484 4.20605C34.2891 4.37207 33.5518 4.59668 32.9365 4.87988C32.3213 5.16309 31.8477 5.5 31.5156 5.89062C31.1836 6.27148 31.0176 6.68164 31.0176 7.12109V16.6133C31.0176 17.043 31.1836 17.4531 31.5156 17.8438C31.8477 18.2246 32.3213 18.5615 32.9365 18.8545C33.5518 19.1377 34.2891 19.3623 35.1484 19.5283C36.0078 19.6943 36.9648 19.7773 38.0195 19.7773C39.1133 19.7773 40.0898 19.6943 40.9492 19.5283C41.8184 19.3525 42.5508 19.1182 43.1465 18.8252C43.752 18.5322 44.2158 18.1953 44.5381 17.8145C44.8604 17.4336 45.0215 17.0332 45.0215 16.6133V14.5039C44.1133 14.5039 43.2979 14.5283 42.5752 14.5771C41.8623 14.626 41.252 14.6748 40.7441 14.7236C40.1484 14.792 39.6211 14.8652 39.1621 14.9434L39.543 11.3984C41.0371 11.2812 42.4434 11.2227 43.7617 11.2227C45.5293 11.2227 47.2188 11.3105 48.8301 11.4863V17.7266C48.8301 18.5078 48.542 19.2256 47.9658 19.8799C47.3896 20.5244 46.6084 21.0811 45.6221 21.5498C44.6455 22.0186 43.5029 22.3848 42.1943 22.6484C40.8857 22.9023 39.4941 23.0293 38.0195 23.0293C36.5449 23.0293 35.1533 22.9023 33.8447 22.6484C32.5361 22.3848 31.3887 22.0186 30.4023 21.5498C29.4258 21.0811 28.6494 20.5244 28.0732 19.8799C27.4971 19.2256 27.209 18.5078 27.209 17.7266V6.00781C27.209 5.22656 27.4971 4.50879 28.0732 3.85449C28.6494 3.2002 29.4258 2.63867 30.4023 2.16992C31.3887 1.70117 32.5361 1.33496 33.8447 1.07129C35.1533 0.807617 36.5449 0.675781 38.0195 0.675781Z" fill="white"/>
</svg>
