<?xml version="1.0" encoding="UTF-8"?>
<!-- Generator: Adobe Illustrator 15.1.0, SVG Export Plug-In . SVG Version: 6.00 Build 0)  -->
<svg width="296" height="337" version="1.1" viewBox="0 0 296 337" xml:space="preserve" xmlns="http://www.w3.org/2000/svg">
<g transform="matrix(3.3711 0 0 3.3711 .79554 1.5869)">
	<path d="m87.032 49.64c0.019-0.034 0.015-0.051 0.035-0.089 0.099-0.207 0.164-0.457 0.164-0.714 0-0.2-0.041-0.405-0.138-0.602-0.051-0.103-0.14-0.178-0.215-0.262 0.082-0.235 0.205-0.594 0.205-0.594 0.028-0.115 0.043-0.229 0.043-0.341 0-0.419-0.199-0.81-0.554-1.054-0.467-0.321-1.097-0.312-1.567 0.023-0.365 0.234-0.619 0.66-0.86 1.084-0.154-0.164-0.313-0.272-0.642-0.19-0.412 0.102-0.359 0.18-0.695 0.666-1.192 1.736-2.774 4.469-4.596 4.563-0.394-0.047-0.515-0.162-0.988-0.905-3.938-6.274-8.778-9.99-15.186-14.553-0.373-0.319-1.186-1.584-1.974-2.807-1.358-2.115-2.899-4.512-4.459-5.609-1.19-0.861-2.462-1.319-3.69-1.761-1.486-0.536-2.894-1.042-4.156-2.248-0.504-0.494-0.959-1.157-1.485-1.925-1.07-1.562-2.437-3.471-5.039-5.156 0.065-0.378 0.147-0.891 0.147-1.517 0-0.768-0.213-1.973-0.559-2.614-0.263-0.488-0.676-0.772-1.064-0.865-0.711-0.172-1.852 0.089-2.619 0.433 1.517-4.48 5.07-7.44 6.922-8.97 1.027-0.85 1.613-1.335 1.613-1.992 0-0.106-0.015-0.215-0.045-0.333-0.269-1.209-1.61-1.272-2.185-1.298l-0.11-6e-3c-0.783-0.02-3.285 0.066-5.098 1.447-0.535 0.143-1.006 0.363-1.433 0.633-0.022-0.076-0.018-0.156-0.053-0.231-0.219-0.472-0.793-0.935-1.75-0.814-1.793 0.274-2.803 0.74-3.486 1.115-0.045 0.026-0.18 0.109-0.18 0.109-0.627 0.375-1.639 1.024-2.393 2.533-0.718 0.531-1.52 1.344-1.825 2.567-0.774 0.53-1.409 1.426-1.454 2.583-0.478 0.565-0.769 1.161-0.904 1.787-0.765-0.671-1.675-1.127-2.752-1.306l-0.077-0.013-0.078-2e-3c-0.338-6e-3 -1.04-0.02-1.573 0.517l-0.136 0.137-0.08 0.175c-0.082 0.182-0.113 0.355-0.113 0.516 0 0.43 0.23 0.764 0.322 0.899l0.06 0.09c0.013 0.033 0.188 0.875 0.188 0.875l0.111 0.925c0.283 1.523 0.936 2.318 1.769 3.026-0.179 0.537-0.28 1.033-0.28 1.466 0 0.736 0.195 1.339 0.367 1.868 0 0 0.045 0.143 0.076 0.242 0.01 0.085 0.018 0.175 0.018 0.283 0 1.046-0.405 3.084-0.719 4.289-1e-3 4e-3 -0.123 0.4-0.123 0.4-0.237 0.735-0.66 2.058-0.66 3.515 0 0.525 0.054 1.068 0.193 1.607 0.275 0.92 0.983 2.02 1.969 2.492 0.037 0.016 0.554 0.223 0.554 0.223 0.496 0.187 0.646 0.244 0.858 0.584 0.181 0.284 0.258 1.194 0.258 2.144 0 0.703-0.041 1.428-0.113 1.936l-9e-3 0.07s-1e-3 0.076-1e-3 0.078c0 0.511 0.324 0.982 0.807 1.172 0.417 0.166 1.048 0.143 1.564-0.416 0.337-0.343 0.626-0.723 0.882-1.129 0.067 0.1 0.082 0.236 0.177 0.319l0.044 0.039 0.049 0.033c0.178 0.124 0.389 0.17 0.601 0.187-0.637 0.433-1.413 0.922-2.458 1.547-6.01 0.948-9.995 3.136-10.743 5.818-9.55 4.647-15.711 14.401-15.711 25.039 0 15.364 12.499 27.865 27.86 27.865 15.371 0 27.877-12.501 27.877-27.865 0-3.64-0.742-7.167-2.069-10.448 0.1-0.046 0.228-0.107 0.358-0.169 0.092 0.101 0.187 0.201 0.187 0.201 0.35 0.419 1.043 0.925 1.603 0.94s0.913-0.057 0.913-0.057 0.035-0.01 0.064-0.018c0.047 0.081 0.311 0.539 0.311 0.539 0.55 0.845 1.441 0.822 1.919 0.809 0.297-7e-3 0.51-0.012 0.772 0.102 0.271 0.125 0.373 0.504 0.504 1.358l0.106 0.625c0.157 0.675 0.552 0.994 0.765 1.165l8e-3 8e-3c0.043 0.212 0.176 0.897 0.176 0.897 0.099 0.74 0.212 1.579 0.992 1.911-0.019-8e-3 0.021-8e-3 0.074-7e-3 0.125 0.62 0.151 1.373 0.875 1.808 0.166 0.1 0.377 0.119 0.59 0.138 8e-3 0.033 0.019 0.07 0.019 0.07 0.188 0.952 0.944 1.192 1.229 1.284 0 0 0.01 3e-3 0.013 4e-3 0.043 0.071 0.473 0.774 0.473 0.774 0.304 0.546 0.586 1.063 0.966 1.373l0.172 0.143 0.215 0.062c0.111 0.031 0.22 0.044 0.328 0.046 0.918 1.171 3.435 4.927 3.435 8.413 0 0.166-5e-3 0.332-0.017 0.496-0.164 2.373-1.135 3.585-1.778 4.387-0.736 0.918-0.767 1.992-0.767 2.414v0.059c0.09 1.024 0.627 1.363 1.017 1.61 0.416 0.222 1.588 0.714 3.233 0.028 1.356-0.566 1.646-1.583 1.836-2.257 0.088-0.306 0.146-0.499 0.244-0.595 0.627-0.609 1.358-1.49 1.452-2.926 0.011-0.117 0.015-0.237 0.015-0.361 0-1.211-0.39-2.734-0.762-4.09-0.154-0.576-0.361-1.934-0.404-3.171 0.531 0.734 0.976 1.471 1.24 1.923l0.133 0.225c0.351 0.596 1.354 2.301 1.354 3.963 0 0.183-0.011 0.364-0.039 0.544-0.183 1.118-0.534 1.763-0.942 2.508-0.424 0.774-0.904 1.651-1.168 3.067-0.033 0.193-0.049 0.383-0.049 0.566 0 0.773 0.291 1.447 0.834 1.908 0.762 0.646 1.903 0.771 3.133 0.344 1.521-0.549 2.565-2.275 2.896-4.619 0.196-0.14 0.397-0.285 0.397-0.285 0.396-0.445 0.502-0.948 0.502-1.369 0-0.357-0.076-0.655-0.115-0.809-0.813-3.27-0.956-4.867-0.956-6.152 0-0.346 0.01-0.67 0.022-0.997l-0.054-2.792c-0.096-0.854-0.5-1.509-0.858-1.868-0.164-0.188-0.603-0.688-0.603-0.688-0.44-0.451-0.987-1.011-1.106-1.505-0.154-0.643-0.215-1.442-0.215-2.337 0-1.56 0.182-3.41 0.358-5.221 0.192-1.945 0.377-3.828 0.377-5.494 0-0.72-0.05-1.382-0.132-2.008 4.531 0.141 6.587-4.526 7.287-6.119l0.119-0.268c0.129-0.343 0.181-0.634 0.181-0.881-1e-3 -0.451-0.178-0.742-0.368-0.939m-54.994-15.985c0.063-0.483 0.119-0.813 0.176-1.179 0.103 0.05 0.246 0.067 0.377 0.093 0.137 0.766 0.605 1.169 0.931 1.386 0 2e-3 0.225 0.887 0.225 0.887 0.012 0.027 0.041 0.061 0.055 0.088-0.299 0.241-0.629 0.519-1.049 0.892l-0.623 0.555c-0.572 0.509-1.035 0.918-1.494 1.3 0.693-1.144 1.242-2.796 1.402-4.022" fill="#fff"/>
	<path d="m81.1 75.059c0.013 0.01 0.021 0.031 0.031 0.042 0.031 0.036 0.117 0.134 0.117 0.134z" fill="#fff"/>
	<path d="m1.069 71.378c0-14.801 12.003-26.8 26.791-26.8 14.805 0 26.809 12 26.809 26.8 0 14.802-12.003 26.796-26.809 26.796-14.788 0-26.791-11.994-26.791-26.796" fill="#e20613"/>
	<path d="m4.314 71.378c0-13.015 10.56-23.566 23.577-23.566 13.01 0 23.569 10.551 23.569 23.566 0 13.013-10.56 23.558-23.569 23.558-13.017 0-23.577-10.545-23.577-23.558" fill="#fff"/>
	<path d="m6.063 71.376c0-12.054 9.776-21.827 21.828-21.827 12.046 0 21.821 9.773 21.821 21.827 0 12.055-9.775 21.823-21.821 21.823-12.052 0-21.828-9.768-21.828-21.823" fill="#e20613"/>
	<path d="m50.82 57.291c-0.451-0.465-0.855-1.096-0.855-1.096-4.832-7.001-12.92-11.612-22.085-11.612l-0.048 0.06c-0.355 0.072-0.722 0.294-1.229 0.581-0.815 0.427-1.674 0.456-2.515 0.499-0.675-0.043-0.206-0.881-0.618-0.742-0.476 0.131-1.525 0.493-1.979 0.779-0.043 1.037-3.181 2.119-4.873 1.302 0.2-2.484 4.323-4.638 10.225-5.528 3.68-2.193 4.2-2.766 6.622-4.912 1.087-0.966 1.587-1.362 1.939-1.434 0.156-0.067 0.047-0.163-0.08-0.168-0.332-0.141-0.486-0.37-0.609-0.633-0.194-0.408-0.065-0.892-0.34-1.148-0.323-0.222-0.721-0.383-0.762-0.92-0.02-0.273-0.039-0.706-0.432-0.737-0.548 0.018-0.746 0.135-0.808-0.992-0.028-0.492-0.01-1.287-0.266-1.308-0.369-0.036-0.732 1.199-1.129 4.235-0.289 2.208-1.602 4.706-2.057 4.389-0.437-0.381-0.068-2.66-0.738-3.675-0.104-0.183 0.216 2.5-1.808 4.567-0.278 0.301-0.518 0.124-0.516-0.03 0.077-0.559 0.347-3.803-0.299-4.795-0.508-0.816-1.057-0.859-1.856-1.205-0.66-0.317-1.204-1.155-1.396-1.794-0.534-2.075 0.408-4.279 0.59-4.986 0.177-0.682 0.903-3.765 0.721-5.05-0.294-0.979-0.744-1.868-0.096-3.381 0.096-0.159 0.174-0.275 0.047-0.408-0.967-0.743-1.614-1.33-1.887-2.8-0.16-0.867-0.028-1.251-0.359-2.001-0.115-0.3-0.376-0.47-0.286-0.667 0.205-0.206 0.514-0.206 0.794-0.201 1.602 0.266 2.564 1.164 3.169 2.141 0.208-0.412 0.376-0.662 0.668-0.949-0.064-0.991 0.395-1.742 1.053-2.388-0.111-1.23 0.726-1.981 1.319-2.251 0.093-1.051 0.722-1.824 1.721-2.523 0.679-1.556 1.681-2.059 2.269-2.42 0.625-0.344 1.516-0.748 3.103-0.992 0.684-0.086 0.831 0.34 0.512 0.632-1.031 0.833-3.433 3.399-4.412 6.244 0.311-0.552 1.059-1.492 1.99-1.933 0.526-1.37 1.803-2.076 2.575-2.456 0.451-0.825 1.445-1.862 2.888-2.17 1.621-1.39 4.268-1.353 4.592-1.346 0.534 0.029 1.209 0.023 1.317 0.513 0.188 0.705-7.861 4.848-9.095 13.201-0.045 0.372 1.974-1.905 4.086-1.56 0.119 0.052 0.211 0.139 0.265 0.259 0.983 2.124 0.049 4.075 0.287 4.219 4.176 2.455 5.084 5.56 6.881 7.318 2.529 2.413 5.492 2.321 7.972 4.108 2.356 1.663 5.055 7.259 6.428 8.414 5.933 4.227 10.935 7.933 14.902 14.257 0.524 0.823 0.854 1.317 1.873 1.409 2.211-0.057 4.032-2.674 5.51-5.057 0.082-0.125 0.185-0.161 0.274-0.09 0.177 0.135 0.078 0.489 0.263 0.509 0.483 0.068 0.892-1.375 1.385-1.692 0.195-0.14 0.488-0.02 0.423 0.229-0.146 0.55-0.49 1.192-0.513 1.611 0 0.103 0.09 0.08 0.142 0.014 0.092-0.108 0.217-0.147 0.319-0.127 0.207 0.044 0.187 0.312 0.127 0.441-0.182 0.34-0.338 0.687-0.362 1.084-9e-3 0.338 0.26 0.095 0.422 0.189 0.228 0.104 0.183 0.376 0.06 0.701-0.617 1.365-2.511 6.367-7.008 5.719-0.576-0.102-0.871-0.52-0.697 0.125 1.149 3.875-1.115 12.289-0.155 16.295 0.276 1.146 1.577 2.073 1.978 2.671 0.235 0.226 0.506 0.702 0.565 1.234 0.303 3.418-0.565 3.741 1.014 10.11 0.134 0.521 0.117 0.904-0.153 1.211-0.281 0.323-0.492 0.183-0.578 0.484-0.207 2.054-1.053 3.677-2.26 4.113-1.668 0.58-2.759-0.207-2.517-1.613 0.472-2.543 1.694-3.029 2.117-5.615 0.321-2.191-1.005-4.443-1.455-5.209-0.418-0.701-1.478-2.613-2.793-3.828-0.173-0.213-0.315-0.162-0.377 0.021-0.5 1.582 0.026 4.825 0.25 5.662 0.37 1.345 0.793 3 0.713 4.096-0.07 1.075-0.619 1.733-1.129 2.229-0.781 0.756-0.283 2.021-1.75 2.633-1.074 0.448-1.867 0.255-2.229 0.065-0.339-0.213-0.5-0.308-0.537-0.722-2e-3 -0.492 0.051-1.198 0.532-1.8 0.783-0.979 1.826-2.367 2.009-4.978 0.342-4.729-3.865-10.117-4.131-10.178-0.271-0.061-0.177 0.177-0.39 0.116-0.418-0.344-0.916-1.617-1.36-2.093-0.24-0.333-0.845-0.188-0.939-0.662-0.051-0.367-0.202-0.736-0.498-0.892-0.194-0.114-0.334 0.081-0.51-0.014-0.517-0.402-0.535-1.852-0.705-1.943-0.185-0.079-0.354 0.069-0.487 0-0.375-0.16-0.283-1.373-0.584-2.232-0.14-0.451-0.599-0.436-0.726-0.98-0.201-0.982-0.174-2.262-1.231-2.748-1.082-0.471-1.774 0.176-2.289-0.604-0.272-0.336-0.226-0.889-0.929-0.962-0.372-0.185-0.521-0.641-0.856-0.538-0.182 0.053-0.03 0.405-0.403 0.642-0.504 0.034-1.008-1.325-1.707-1.265-0.231 0.087-0.321 0.351-0.582 0.367-0.301 0.013-0.326-1.521-1.31-1.891-0.176-0.065-0.306 0.258-0.457 0.043-3e-3 2e-3 -0.404-0.305-0.871-0.797" fill="#1d1d1b"/>
	<path d="m50.82 57.291c-0.451-0.465-0.855-1.096-0.855-1.096-4.832-7.001-12.92-11.612-22.085-11.612l-0.048 0.06c-0.355 0.072-0.722 0.294-1.229 0.581-0.815 0.427-1.674 0.456-2.515 0.499-0.675-0.043-0.206-0.881-0.618-0.742-0.476 0.131-1.525 0.493-1.979 0.779-0.043 1.037-3.181 2.119-4.873 1.302 0.2-2.484 4.323-4.638 10.225-5.528 3.68-2.193 4.2-2.766 6.622-4.912 1.087-0.966 1.587-1.362 1.939-1.434 0.156-0.067 0.047-0.163-0.08-0.168-0.332-0.141-0.486-0.37-0.609-0.633-0.194-0.408-0.065-0.892-0.34-1.148-0.323-0.222-0.721-0.383-0.762-0.92-0.02-0.273-0.039-0.706-0.432-0.737-0.548 0.018-0.746 0.135-0.808-0.992-0.028-0.492-0.01-1.287-0.266-1.308-0.369-0.036-0.732 1.199-1.129 4.235-0.289 2.208-1.602 4.706-2.057 4.389-0.437-0.381-0.068-2.66-0.738-3.675-0.104-0.183 0.216 2.5-1.808 4.567-0.278 0.301-0.518 0.124-0.516-0.03 0.077-0.559 0.347-3.803-0.299-4.795-0.508-0.816-1.057-0.859-1.856-1.205-0.66-0.317-1.204-1.155-1.396-1.794-0.534-2.075 0.408-4.279 0.59-4.986 0.177-0.682 0.903-3.765 0.721-5.05-0.294-0.979-0.744-1.868-0.096-3.381 0.096-0.159 0.174-0.275 0.047-0.408-0.967-0.743-1.614-1.33-1.887-2.8-0.16-0.867-0.028-1.251-0.359-2.001-0.115-0.3-0.376-0.47-0.286-0.667 0.205-0.206 0.514-0.206 0.794-0.201 1.602 0.266 2.564 1.164 3.169 2.141 0.208-0.412 0.376-0.662 0.668-0.949-0.064-0.991 0.395-1.742 1.053-2.388-0.111-1.23 0.726-1.981 1.319-2.251 0.093-1.051 0.722-1.824 1.721-2.523 0.679-1.556 1.681-2.059 2.269-2.42 0.625-0.344 1.516-0.748 3.103-0.992 0.684-0.086 0.831 0.34 0.512 0.632-1.031 0.833-3.433 3.399-4.412 6.244 0.311-0.552 1.059-1.492 1.99-1.933 0.526-1.37 1.803-2.076 2.575-2.456 0.451-0.825 1.445-1.862 2.888-2.17 1.621-1.39 4.268-1.353 4.592-1.346 0.534 0.029 1.209 0.023 1.317 0.513 0.188 0.705-7.861 4.848-9.095 13.201-0.045 0.372 1.974-1.905 4.086-1.56 0.119 0.052 0.211 0.139 0.265 0.259 0.983 2.124 0.049 4.075 0.287 4.219 4.176 2.455 5.084 5.56 6.881 7.318 2.529 2.413 5.492 2.321 7.972 4.108 2.356 1.663 5.055 7.259 6.428 8.414 5.933 4.227 10.935 7.933 14.902 14.257 0.524 0.823 0.854 1.317 1.873 1.409 2.211-0.057 4.032-2.674 5.51-5.057 0.082-0.125 0.185-0.161 0.274-0.09 0.177 0.135 0.078 0.489 0.263 0.509 0.483 0.068 0.892-1.375 1.385-1.692 0.195-0.14 0.488-0.02 0.423 0.229-0.146 0.55-0.49 1.192-0.513 1.611 0 0.103 0.09 0.08 0.142 0.014 0.092-0.108 0.217-0.147 0.319-0.127 0.207 0.044 0.187 0.312 0.127 0.441-0.182 0.34-0.338 0.687-0.362 1.084-9e-3 0.338 0.26 0.095 0.422 0.189 0.228 0.104 0.183 0.376 0.06 0.701-0.617 1.365-2.511 6.367-7.008 5.719-0.576-0.102-0.871-0.52-0.697 0.125 1.149 3.875-1.115 12.289-0.155 16.295 0.276 1.146 1.577 2.073 1.978 2.671 0.235 0.226 0.506 0.702 0.565 1.234 0.303 3.418-0.565 3.741 1.014 10.11 0.134 0.521 0.117 0.904-0.153 1.211-0.281 0.323-0.492 0.183-0.578 0.484-0.207 2.054-1.053 3.677-2.26 4.113-1.668 0.58-2.759-0.207-2.517-1.613 0.472-2.543 1.694-3.029 2.117-5.615 0.321-2.191-1.005-4.443-1.455-5.209-0.418-0.701-1.478-2.613-2.793-3.828-0.173-0.213-0.315-0.162-0.377 0.021-0.5 1.582 0.026 4.825 0.25 5.662 0.37 1.345 0.793 3 0.713 4.096-0.07 1.075-0.619 1.733-1.129 2.229-0.781 0.756-0.283 2.021-1.75 2.633-1.074 0.448-1.867 0.255-2.229 0.065-0.339-0.213-0.5-0.308-0.537-0.722-2e-3 -0.492 0.051-1.198 0.532-1.8 0.783-0.979 1.826-2.367 2.009-4.978 0.342-4.729-3.865-10.117-4.131-10.178-0.271-0.061-0.177 0.177-0.39 0.116-0.418-0.344-0.916-1.617-1.36-2.093-0.24-0.333-0.845-0.188-0.939-0.662-0.051-0.367-0.202-0.736-0.498-0.892-0.194-0.114-0.334 0.081-0.51-0.014-0.517-0.402-0.535-1.852-0.705-1.943-0.185-0.079-0.354 0.069-0.487 0-0.375-0.16-0.283-1.373-0.584-2.232-0.14-0.451-0.599-0.436-0.726-0.98-0.201-0.982-0.174-2.262-1.231-2.748-1.082-0.471-1.774 0.176-2.289-0.604-0.272-0.336-0.226-0.889-0.929-0.962-0.372-0.185-0.521-0.641-0.856-0.538-0.182 0.053-0.03 0.405-0.403 0.642-0.504 0.034-1.008-1.325-1.707-1.265-0.231 0.087-0.321 0.351-0.582 0.367-0.301 0.013-0.326-1.521-1.31-1.891-0.176-0.065-0.306 0.258-0.457 0.043-3e-3 2e-3 -0.404-0.305-0.871-0.797z" fill="none" stroke="#1d1d1b" stroke-width=".127"/>
	<path d="m27.147 10.744c0.422-0.528 1.273-0.771 1.236-0.939-0.074-0.155-0.39-0.016-0.627 0-0.099 0.015-0.234-9e-3 -0.218-0.126 0.398-1.396 1.761-1.646 2.175-2.088 0.048-0.086 0-0.086-0.107-0.146-0.216-9e-3 -0.561 0.227-0.561 0.022 0.162-1.391 1.856-2.06 2.175-2.17 0.082-0.073 8e-3 -0.169-0.098-0.186-0.144 0.017-0.262 0.106-0.281-0.072 0.164-0.69 1.084-1.242 1.678-1.537 0.605-0.248 1.802-0.616 1.802-0.433 0 0.073-0.939 0.529-1.25 0.993-0.257 0.382-0.492 0.632-0.511 1.235-0.963 0.472-1.438 1.537-1.502 2.552-0.682 0.351-1.205 1.587-0.981 2.096-0.785 0.764-1.172 1.865-1.129 2.971-1.701 2.225-1.197 3.073 0.678 3.763 0.277 0.088 0.541 0.105 0.594-0.029 0.066-0.133-0.162-0.214-0.246-0.406-1.02-2.272 0.265-3.41 2.06-4.175 0.141-0.067 0.035-0.227-0.176-0.222-0.484-5e-3 -0.919 0.12-0.98-0.037-0.262-0.742 1.666-2.279 2.615-2.571 0.403-0.119 0.233-0.323 0.067-0.294-0.254-0.023-0.647 0.124-0.774-0.207 0.242-0.838 2.553-1.948 2.893-2.147 0.209-0.132 0.297-0.37-0.725-0.161-0.096 0.013-0.201 0.013-0.156-0.126 0.193-0.604 2.355-1.449 3.455-1.831 0.174-0.081 0.223-0.351-0.295-0.25-0.187 0.029-0.531 0.154-0.598 0.015 0.067-0.817 2.456-1.447 3.309-1.634 0.193-0.064 0.229-0.174 0.061-0.256-0.272-0.082-0.702 0.132-0.538-0.153 0.643-0.406 2.344-0.412 2.935-0.316 0.163 0.029 0.202 0.066 0.219 0.101-0.185 0.428-3.043 1.265-3.397 2.985-0.857 0.354-1.695 1.17-1.793 1.869-0.451 0.243-1.353 0.985-1.406 2.008-0.492 0.367-1.783 1.513-1.353 2.904-0.69 0.646-1.223 1.308-1.196 3.123 0.01 0.625-0.802 1.641-1.64 1.876-0.237 0.095-0.143 0.286 0.027 0.331 1.404 0.414 2.709-0.348 3.219-0.832 1.621-1.543 2.701-2.101 3.429-2.191 0.133-0.036 0.133 0.06 0.155 0.134 0.103 0.405 0.355 1.389 4e-3 2.77-0.461 1.728-1.784 2.53-2.159 3.002-0.066 0.066 0.186 0.801 0.051 1.177-0.152 0.476 0.02 0.772 0.196 0.844 0.478 0.177 0.818-1.61 1.105-1.565 0.23 0.013 0.191 0.403 0.467 0.544 0.146 0.051 0.359 7e-3 0.385-0.156 0.035-0.499 0.22-1.72 0.341-1.851 0.088-0.11 0.36 0.442 0.375 0.778 0.02 1.391-0.761 2.573-0.302 3.531 0.101 0.206 0.332 0.189 0.492 0.037 0.42-0.45 0.707-2.082 1.64-2.288 1.258-0.279 2.502 3.169 1.616 4.089-0.43 0.366-0.971 0.043-1.504 0.339-0.574 0.336-0.526 1.616-0.918 2.146-0.233 0.234-0.51 0.273-1.049 0.316-1.141 0.088-0.793 3.346-0.617 3.927 0.113 0.345 0.355 0.278 0.515 0.161 0.164-0.139 0.289-0.809 0.323-1.435 0.047-0.198 0.392-0.277 0.64-0.52 0.268-0.208 0.127-0.435 0.289-0.639 0.233-0.259 0.461-0.031 0.651-0.32 0.492-0.408 0.142-1.05 0.539-1.32 0.584-0.384 1.103-0.193 1.619-0.758 0.315-0.352 0.356-1.096 0.801-1.222 2.361-0.057 4.711 2.663 5.113 3.472 1.168 2.417-0.701 6.066 0.575 6.765 1.608 0.934 1.261 2.749 1.084 3.205-0.347 0.926-2.92 2.104-3.252 4.249-0.166 2.06 0.908 1.633 0.985 1.377 0.082-0.259 0.154-0.596 0.281-0.853 0.101-0.228 0.416-0.128 0.453 0.094 0.061 0.192 0.502 0.743 1.155-0.47 0.412-0.771 1.522-1.765 2.354-2.338 0.817-0.58 1.013-2.396 1.156-2.81 0.106-0.358 0.407-0.358 0.452-0.742 0.031-0.397-0.715-1.712-0.271-2.655 0.207-0.314 0.705-0.537 1.078-0.103 0.39 0.451-0.242 1.929 0.465 1.963 0.603 0.017 0.67-0.691 1.191-0.645 0.532 0.103-0.427 2.052 0.1 2.353 0.322 0.131 0.726-0.023 0.89 0.299 0.149 0.538-0.813 1.517 0.017 1.517 8.795-0.155 12.008 6.765 11.442 8.028-0.263 0.48-1.323-0.235-1.476 0.25-0.803 2.708 1.011 4.758 1.537 5.112 0.154 0.088 0.431-0.037 0.41-0.376-0.088-0.772-0.517-1.185-0.431-1.949 0.149-1.345 3.153-0.515 3.306 0.509 0.059 0.384 0.08 0.697 0.418 1.021 0.428 0.404 1.453-0.052 1.553 0.843 0.13 1.739-2.037 1.839-3.537 2.915-0.715 0.55-0.553 0.934 0.052 1.131 0.722 0.192 1.875-0.014 2.457 0.84 0.828 1.185-0.259 3.661-0.321 4.705-0.062 1.06 1.836 4.154 1.875 5.735 0.137 0.788-0.406 1.214-1.076 0.565-0.647-0.676-1.322-1.719-1.824-2.501-0.147-0.246-0.53-0.264-0.522 0.244-8e-3 1.368 6.474 9.802 6.638 11.184 0.147 0.729-0.256 1.345-0.084 2.052 0.057 0.207 0.321 0.088 0.344 0.254 0.035 0.469-0.442 1.179 0.236 1.518 0.336 0.927 0 1.313 0.176 2.081 0.088 0.765 0.449 1.824 0.531 2.597-0.183 2.176-1.017 3.023-1.681 3.347-0.571 0.286-0.808-0.228-0.756-0.672 0.151-1.316 1.61-3.651 1.028-6.283-1.496-6.767-8.739-11.569-9.947-14.142-0.389-0.971-1.778-1.079-1.858-2.219-0.139-0.368-0.504-0.258-0.813-0.596-0.262-0.296-0.252-1.184-0.534-1.834-0.082-0.204-0.336-0.102-0.522-0.298-1.029-1.355-0.81-7.972-1.728-8.876-0.677-0.378-1.203 0.674-2.046 0.762-0.645 0.066-1.711-1.536-2.102-1.132-0.316 0.317-0.181 1.132-0.154 1.259 0.033 0.111 0.193 0.677-0.026 0.677-0.196 8e-3 -0.479-0.397-1.297-0.729-0.544-0.197-1.06 0-1.312-0.162-0.558-0.602 0.019-1.866-0.916-2.227-0.263-0.102-0.31-0.771-0.443-1.037-0.129-0.19-0.397-0.176-0.518-0.324-0.255-0.382-0.433-0.852-0.545-1.39-0.097-0.369-0.949 0.09-1.017-0.492-0.082-0.39-0.539-0.513-0.892-0.574-0.433-0.051-0.25-0.999-0.625-1.154-0.16-0.073-0.22 0.111-0.388 0.025-0.172-0.215-0.14-0.42-0.358-0.575-0.187-0.126-0.367 0.086-0.502-0.066-0.545-0.662-0.112-1.774-0.396-2.103-0.187-0.205-0.509 0.023-0.793-0.222-0.276-0.211-0.321-0.559-0.487-0.609-0.484-8e-3 -0.654-0.096-0.853-0.339-0.882-1.234-0.783-2.655-1.085-3.161-0.198-0.332-0.495-0.538-0.717 0.087-0.444 1.074-0.397 5.081-1.683 5.626-0.989 0.486-1.873-1.22-2.36-1.523-0.219-0.116-0.258 0.244-0.414 0.259-0.451-0.177-0.35-0.713-0.715-0.926-0.354-0.155-0.203 0.345-0.406 0.301-0.352-0.324-0.352-1.191-0.664-1.345-0.252-0.097-0.401 0.198-0.545 0.073-0.508-0.441-0.153-1.427-0.766-1.737-0.266-0.086-0.227 0.362-0.5 0.235-0.262-0.095-0.217-1.492-1.033-1.358-0.121 0.013-0.082-0.178-0.166-0.25-0.242-0.031-0.41 0.306-0.662 0.088-0.344-0.455-0.608-0.677-0.83-0.848-0.344-0.292-0.854 0.076-1.278-0.24-1.492-0.656-4.911 1.955-6.452 3.485-0.562-0.524-1.32 0.028-1.958 0.094-0.23 0.053-0.949 0.022-0.385-0.755 1.398-1.48 2.42-1.407 5.053-3.289 1.926-1.411 3.652-2.786 4.273-3.191 0.512-0.264 1.327-0.486 2.01 0.414 0.963 1.256 3.114 3.366 4.03 3.779 1.882 0.815 1.976-0.627 2.207-1.127 0.201-0.506 0.326-0.087 0.314 0.392-5e-3 0.314 0.112 0.754 0.368 0.798 0.517 0.061 0.522-0.329 0.597-0.579 0.588-2.316 2.866-5.101 3.767-4.529 0.659 0.42 1.049 0.42 1.206-0.375 0.171-1.023-0.618-1.962-0.831-3.038-0.22-1.249-0.084-2.889-0.56-3.116-0.277-0.119-0.66 0.152-0.875 0.455-0.287 0.383-0.287 0.787-0.386 1.251-0.047 0.256-1.086 0.537-1.202 1.883-0.011 0.242-0.404-0.244-0.687 0-0.578 0.439-0.474 2.624-0.66 2.749-0.216 0.021-0.476-0.221-0.563 0.094 0.047 0.354-0.149 1.206-0.318 1.273-0.143 0.043-0.293-0.131-0.495-0.014-0.498 0.418-0.297 0.998-0.777 1.551-0.293 0.361-0.494 0.108-0.527-0.208-0.071-0.539-0.502-1.351-0.881-1.734-1.11-1.146-0.424-3.058-1.992-3.853-0.471-0.234-0.498-0.463-0.551-0.887-0.018-0.465-0.285-0.787-0.527-0.848-0.432-0.125-0.506-0.36-0.524-0.663 0.039-0.815-0.568-0.85-0.893-0.918-0.765-0.074-0.791-0.22-0.55-2.133 0.07-0.461 0.074-0.993-0.075-1.426-0.4-0.59-1.277-0.213-1.156-1.176 0.092-0.633 1.225-1.456 1.709-1.977 0.293-0.33 0.481-1.184-0.531-0.978-2.297 0.611-4.129 4.682-4.561 5.462-1.661 3.045-3.106 4.259-4.457 4.728-0.632 0.221-2.82 0.425-3.268-1.719-0.23-1.127 0.047-2.186 0.559-3.949 2.219-7.713-0.26-6.244 0.953-8.812 0.781-0.873 1.891-0.754 3.016-0.89 0.249-0.033 0.16-0.357 0.099-0.453-0.045-0.089-0.306-0.199-0.652-0.263-0.344-0.059-1.082-0.714-1.147-1.42-0.064-0.774 0.434-1.252 0.764-1.588 0.471-0.465 0.81-0.516 0.818-0.617-0.029-0.413-0.896 0.166-0.972 0-0.182-0.643 0.349-1.231 0.701-1.645" fill="#fff"/>
	<path d="m24.75 14.76c-0.029 0.279-0.029 0.713 0.344 1.611-0.373 0.052-0.6 0.381-0.927 0.2-1.021-0.559-1.594-1.598-1.925-2.65-0.214-0.603-0.193-1.321-0.53-1.866 1.766 0.118 3.059 2.498 3.038 2.705" fill="#fff"/><g fill="#1d1d1b">
	<path d="m39.001 15.039c0.094-0.028 0.127 0.036 0.127 0.074-0.074 1.258-1.408 3.773-3.145 4.221-0.101 0.021-0.166 8e-3 -0.201-0.088-0.158-0.875 0.393-2.361 1.805-2.904 0.699-0.272 1.029-0.737 1.414-1.303"/>
	<path d="m33.155 19.98c0.082 0.323 0.021 0.346-0.254 0.162-0.908-0.95-1.682-0.706-2.232-0.418-0.268 0.11-0.35 0.102-0.272-0.141 0.836-1.278 2.36-0.646 2.758 0.397"/>
	<path d="m28.439 20.156c0.458 0.656 0.259 1.678-0.138 2.443-0.314 0.587-0.83 1.53-1.031 1.942-0.084 0.246-0.264 0.263-0.414 0.196-0.15-0.029 0.556-1.206 0.757-2.585 0.081-0.566-0.07-1.392 0.343-2.01 0.142-0.205 0.353-0.138 0.483 0.014"/>
	<path d="m32.28 20.774c0.332 0.767-0.48 1.142-0.955 1.235-0.332 0.06-0.582-0.035-0.863-0.218-0.157-0.112-0.073-0.193-0.196-0.25-0.254-0.016-0.193 0.146-0.467 0.21-0.189 0.024-0.205-0.064-0.078-0.255 0.309-0.514 0.477-0.876 0.985-1.081 0.474-0.192 1.166-0.39 1.574 0.359"/>
	<path d="m29.618 23.995c0.395 1.538 0.104 2.133-0.25 2.5-0.131 0.119-0.958 0.267-1.066-0.793 0.413-0.499 0.667-1.257 0.915-1.795 0.173-0.345 0.282-0.368 0.401 0.088"/>
	<path d="m26.553 28.246c-0.179 0.965-0.574 1.455-1.26 1.609-0.799 0.097-1.139-0.787-1.037-0.781 0.778 0.142 1.6-0.301 2.09-0.932 0.117-0.167 0.237-0.051 0.207 0.104"/>
	<path d="m65.762 43.188c0.441 0.141 0.625 0.594 0.472 0.852-0.183 0.419-0.558 0.706-0.565 1.109-8e-3 0.339-0.067 0.545-0.338 0.633-0.496 0.052-0.785-0.979-1.229-0.263-0.242 0.367-0.742 0.116-0.808-0.089-0.088-0.317-0.278-0.64-0.597-0.654-1.036-0.03-1.291-1.65-1.125-2.088 0.796-1.877 2.759 5e-3 4.19 0.5"/></g><g fill="#fff">
	<path d="m25.051 42.877c-0.545 0.406-0.912 0.92-1.213 1.48-0.652 0.102-1.708 0.543-2.462 0.882-0.278 0.146-1.339 0.227-2.296 0.338-0.146-0.014-0.181-0.103-0.181-0.22-0.077-0.728 4.425-2.566 6.152-2.744 0.157 0 0.252 0.075 0 0.264"/>
	<path d="m84.461 52.188c0.142 0.367-0.247 0.83-0.651 1.278-0.399 0.464-2.118 1.677-3.551 1.61-0.397-0.059-0.826-0.495-0.692-1.021 0.139-0.449 1.522-0.566 2.584-0.934 0.776-0.265 1.143-0.428 1.756-0.898 0.386-0.292 0.475-0.118 0.554-0.035"/>
	<path d="m72.233 79.032c0.261 9e-3 0.224-0.08 0.449 0 0.201 9e-3 0.196 0.876 0.168 1.323-0.049 0.279-0.114 0.751 0.181 0.965 0.264 0.227-0.349 1.059 0.094 1.462 0.244 0.338-0.274 1.225 0.123 1.714 0.192 0 0.34 0.056 0.44 0.217-0.168 1.026 0.291 2.644 0.13 3.112-0.449 0.706-0.787 0.635-1.171 1.797-0.577 1.123-2.209 0.423-1.889-0.485 1.153-1.95 1.577-4.121 1.637-5.068 0.192-2.461-1.104-6.375-1.248-6.92-0.03-0.492 0.074-0.787 0.464-0.346 0.571 0.898 0.364 2.177 0.622 2.229"/>
	<path d="m30.192 58.105-0.053 0.236s-1.248-1.859-1.51-2.25c-0.044 0.545-0.636 7.86-0.636 7.86h-0.203s-0.576-7.313-0.619-7.86c-0.262 0.391-1.514 2.25-1.514 2.25s-2.587-11.912-2.773-12.772c-0.188 0.86-2.775 12.772-2.775 12.772s-1.251-1.861-1.514-2.25c-0.046 0.575-2.66 33.409-2.66 33.409s0 0.022-1e-3 0.04c3.55 2.342 7.679 3.581 11.946 3.581h0.031c4.272 0 8.403-1.239 11.948-3.583v-0.045s-2.391-30.124-2.65-33.402c-0.264 0.391-1.514 2.25-1.514 2.25s-2.594-11.915-2.781-12.773c-0.186 0.859-2.722 12.537-2.722 12.537"/>
	</g><path d="m39.962 89.494-2.676-33.705-1.541 2.294-2.832-12.999-2.822 12.999-1.54-2.294-0.66 8.154-0.641-8.154-1.542 2.294-2.825-12.999-2.825 12.999-1.542-2.294-2.685 33.705v0.104c3.449 2.288 7.602 3.625 12.049 3.625h0.031c4.461 0 8.606-1.337 12.051-3.625z" fill="#1d1d1b"/>
	<polygon points="7.395 82.341 50.664 70.182 47.224 58.283 4.768 70.224" fill="#fff"/><g fill="#e20613">
	<polygon points="12.444 72.812 12.755 69.518 18.322 67.788 17.341 78.27 13.451 79.355 14.115 72.232"/>
	<path d="m23.135 75.122c-0.1 1.087-1.252 2.012-2.291 2.329-1.059 0.274-2.079-0.028-1.977-1.125 0.104-1.139 1.257-2.097 2.303-2.369 1.038-0.298 2.065 0.041 1.965 1.165"/>
	<polygon points="32.913 63.674 32.646 66.699 29.358 67.599 29.264 68.702 32.148 67.901 31.884 70.6 29.008 71.416 28.658 75.083 24.706 76.196 25.699 65.717"/>
	<path d="m42.206 65.223c-0.576-0.387-1.324-0.641-2.213-0.396-1.176 0.332-2.223 1.494-2.334 2.639-0.105 1.143 0.83 1.751 2 1.42 0.904-0.249 1.654-0.822 2.34-1.604l-0.486 3.952c-0.651 0.469-2.123 1-2.823 1.197-3.082 0.862-5.271-0.78-4.99-3.758 0.283-3.059 2.998-6.199 6.168-7.097 0.881-0.249 1.777-0.359 2.588-0.293z"/></g><g fill="#fff">
	<path d="m25.208 79.172c-0.04 0.417-0.335 0.82-0.657 0.941-0.308 0.074-0.529-0.205-0.498-0.626 0.02-0.427 0.313-0.829 0.631-0.894 0.324-0.127 0.559 0.162 0.524 0.579m1.675-0.484c-0.029 0.425-0.32 0.829-0.642 0.938-0.322 0.104-0.534-0.189-0.504-0.594 0.042-0.42 0.312-0.823 0.637-0.923 0.316-0.108 0.552 0.166 0.509 0.579m1.104 4.412c-0.184 2.219-1.594 3.932-3.198 4.369-1.603 0.452-2.796-0.54-2.607-2.756 0.179-2.166 1.602-3.935 3.202-4.385 1.586-0.449 2.777 0.609 2.603 2.772m-3.892 1.115c-0.069 0.801 0.3 1.221 0.867 1.076 0.574-0.162 1.029-0.824 1.098-1.596 0.06-0.759-0.267-1.266-0.867-1.088-0.596 0.167-1.03 0.89-1.098 1.608"/>
	<polygon points="28.364 86.347 28.942 79.443 30.845 78.93 30.456 83.611 32.05 83.166 31.866 85.393"/>
	<path d="m32.938 78.326 1.832-0.486 1.391 3.355h0.043c-0.018-0.578-0.055-1.143-8e-3 -1.742l0.183-2.066 1.819-0.503-0.576 6.897-1.825 0.502-1.365-3.154-0.074 0.014c0.023 0.465 0.043 0.888 0 1.359l-0.186 2.252-1.804 0.49z"/>
	<path d="m17.536 82.622 1.848-0.516-0.303 3.014 0.044-0.013c0.075-0.295 0.208-0.576 0.335-0.861l1.101-2.472 2.079-0.573-1.922 3.813 1.525 3.054-2.205 0.617-0.744-1.854c-0.088-0.227-0.229-0.438-0.234-0.703l-0.052 0.013-0.206 2.889-1.848 0.502z"/>
</g></g>
</svg>
